<svg width="1024" height="1024" viewBox="0 0 1024 1024" fill="none" xmlns="http://www.w3.org/2000/svg">
<rect width="1024" height="1024" fill="#6947E4"/>
<g filter="url(#filter0_d_6_54)">
<path d="M740.325 298C749.235 298 756.181 305.722 755.241 314.582L713.129 711.582C712.32 719.211 705.885 725 698.213 725H560.838C553.612 725 547.414 719.849 546.091 712.745L516.613 554.387C516.326 552.844 514.98 551.725 513.41 551.725V551.725C511.807 551.725 510.443 552.89 510.192 554.473L485.181 712.347C484.027 719.634 477.744 725 470.366 725H333.101C325.529 725 319.145 719.357 318.215 711.842L269.084 314.842C267.977 305.895 274.956 298 283.971 298H387.766C395.543 298 402.03 303.944 402.709 311.692L418.391 490.82C418.547 492.6 420.038 493.966 421.825 493.966V493.966C423.553 493.966 425.013 492.687 425.241 490.974L449.189 311.021C450.181 303.568 456.538 298 464.058 298H567.672C575.113 298 581.43 303.455 582.513 310.817L609.115 491.685C609.308 492.995 610.432 493.966 611.757 493.966V493.966C613.163 493.966 614.327 492.876 614.421 491.474L626.362 312.004C626.887 304.124 633.432 298 641.329 298H740.325Z" fill="#502BD4"/>
<path d="M730.034 713.375L772.146 316.375C774.151 297.473 759.333 281 740.325 281H641.329C624.481 281 610.518 294.064 609.4 310.875L606.38 356.263L599.332 308.343C597.022 292.638 583.547 281 567.672 281H464.058C448.016 281 434.453 292.877 432.337 308.779L424.605 366.881L419.644 310.209C418.197 293.681 404.357 281 387.766 281H283.971C264.739 281 249.851 297.844 252.213 316.93L301.344 713.93C303.327 729.961 316.948 742 333.101 742H470.366C486.106 742 499.509 730.553 501.972 715.007L514.5 635.927L529.378 715.856C532.199 731.01 545.423 742 560.838 742H698.213C714.579 742 728.308 729.651 730.034 713.375Z" stroke="white" stroke-width="34"/>
</g>
<defs>
<filter id="filter0_d_6_54" x="234.964" y="264" width="632.366" height="573" filterUnits="userSpaceOnUse" color-interpolation-filters="sRGB">
<feFlood flood-opacity="0" result="BackgroundImageFix"/>
<feColorMatrix in="SourceAlpha" type="matrix" values="0 0 0 0 0 0 0 0 0 0 0 0 0 0 0 0 0 0 127 0" result="hardAlpha"/>
<feOffset dx="54" dy="54"/>
<feGaussianBlur stdDeviation="12"/>
<feComposite in2="hardAlpha" operator="out"/>
<feColorMatrix type="matrix" values="0 0 0 0 0 0 0 0 0 0 0 0 0 0 0 0 0 0 0.25 0"/>
<feBlend mode="normal" in2="BackgroundImageFix" result="effect1_dropShadow_6_54"/>
<feBlend mode="normal" in="SourceGraphic" in2="effect1_dropShadow_6_54" result="shape"/>
</filter>
</defs>
</svg>
