<svg width="108" height="108" viewBox="0 0 108 108" fill="none" xmlns="http://www.w3.org/2000/svg">
<g clip-path="url(#clip0_1_1138)">
<g filter="url(#filter0_d_1_1138)">
<path d="M69.0974 37C72.2491 37 74.7039 39.7349 74.3646 42.8683L71.9754 64.932C71.54 68.9529 68.1452 72 64.1007 72C60.2964 72 57.0295 69.2954 56.3193 65.5579L54.8868 58.0196C54.8623 57.8905 54.7494 57.7971 54.618 57.7971C54.4838 57.7971 54.3694 57.8945 54.348 58.027L53.1601 65.3724C52.5423 69.1925 49.2442 72 45.3746 72C41.4011 72 38.0481 69.044 37.5501 65.1018L34.7809 43.1816C34.3664 39.9007 36.9238 37 40.2308 37C43.0751 37 45.4489 39.1712 45.7021 42.0042L46.6669 52.7995C46.6803 52.9486 46.8052 53.0628 46.9548 53.0628C47.0994 53.0628 47.2218 52.9559 47.2413 52.8127L48.6537 42.4151C49.0751 39.3133 51.7239 37 54.8542 37C57.9513 37 60.5825 39.2656 61.0423 42.3283L62.6254 52.8722C62.6419 52.9817 62.736 53.0628 62.8468 53.0628C62.9646 53.0628 63.0622 52.9716 63.0702 52.8541L63.8116 41.9389C64.0004 39.1587 66.3107 37 69.0974 37Z" fill="#502BD4"/>
<path d="M45.3746 76C49.1349 76 52.5371 74.241 54.7294 71.4481C56.9311 74.2453 60.3416 76 64.1007 76C70.1877 76 75.2969 71.4141 75.9522 65.3626L78.3413 43.2989C78.9368 37.7998 74.6287 33 69.0974 33C66.3633 33 63.8904 34.1841 62.1833 36.0809C60.3096 34.1686 57.7021 33 54.8542 33C51.9263 33 49.2555 34.2345 47.3732 36.2393C45.6263 34.2462 43.0636 33 40.2308 33C34.5157 33 30.0962 38.0129 30.8125 43.683L33.5817 65.6032C34.3323 71.5447 39.3858 76 45.3746 76Z" stroke="white" stroke-width="8"/>
</g>
</g>
<defs>
<filter id="filter0_d_1_1138" x="26.7356" y="29" width="133.661" height="129" filterUnits="userSpaceOnUse" color-interpolation-filters="sRGB">
<feFlood flood-opacity="0" result="BackgroundImageFix"/>
<feColorMatrix in="SourceAlpha" type="matrix" values="0 0 0 0 0 0 0 0 0 0 0 0 0 0 0 0 0 0 127 0" result="hardAlpha"/>
<feOffset dx="54" dy="54"/>
<feGaussianBlur stdDeviation="12"/>
<feComposite in2="hardAlpha" operator="out"/>
<feColorMatrix type="matrix" values="0 0 0 0 0 0 0 0 0 0 0 0 0 0 0 0 0 0 0.25 0"/>
<feBlend mode="normal" in2="BackgroundImageFix" result="effect1_dropShadow_1_1138"/>
<feBlend mode="normal" in="SourceGraphic" in2="effect1_dropShadow_1_1138" result="shape"/>
</filter>
<clipPath id="clip0_1_1138">
<rect width="108" height="108" fill="white"/>
</clipPath>
</defs>
</svg>
